<?xml version="1.0" encoding="UTF-8"?>
<!DOCTYPE svg PUBLIC "-//W3C//DTD SVG 1.1//EN" "http://www.w3.org/Graphics/SVG/1.1/DTD/svg11.dtd">
<svg xmlns="http://www.w3.org/2000/svg" version="1.1" width="512px" height="512px" style="shape-rendering:geometricPrecision; text-rendering:geometricPrecision; image-rendering:optimizeQuality; fill-rule:evenodd; clip-rule:evenodd" xmlns:xlink="http://www.w3.org/1999/xlink">
<g><path style="opacity:0.996" fill="#d7dee2" d="M 343.5,39.5 C 343.333,68.5019 343.5,97.5019 344,126.5C 346.929,135.096 352.763,140.596 361.5,143C 382.164,143.5 402.831,143.667 423.5,143.5C 423.5,193.833 423.5,244.167 423.5,294.5C 314.335,295.499 205.001,295.833 95.5,295.5C 95.8298,278.991 95.4964,262.658 94.5,246.5C 94.3333,184.499 94.5,122.499 95,60.5C 97.4987,47.5009 105.332,40.3342 118.5,39C 193.668,38.1678 268.668,38.3344 343.5,39.5 Z"/></g>
<g><path style="opacity:1" fill="#afbdc7" d="M 343.5,39.5 C 347.147,39.6216 349.981,41.2882 352,44.5C 374.615,75.4495 397.615,106.116 421,136.5C 422.411,138.65 423.245,140.984 423.5,143.5C 402.831,143.667 382.164,143.5 361.5,143C 352.763,140.596 346.929,135.096 344,126.5C 343.5,97.5019 343.333,68.5019 343.5,39.5 Z"/></g>
<g><path style="opacity:1" fill="#2f98db" d="M 174.5,119.5 C 199.785,117.308 215.951,128.308 223,152.5C 224.441,177.712 212.941,193.212 188.5,199C 165.538,199.939 150.705,189.439 144,167.5C 141.79,143.559 151.956,127.559 174.5,119.5 Z"/></g>
<g><path style="opacity:1" fill="#2e98db" d="M 359.5,278.5 C 310.664,278.832 261.997,278.499 213.5,277.5C 237.957,248.539 262.623,219.706 287.5,191C 292.946,188.382 297.446,189.549 301,194.5C 321.625,219.461 342.625,244.127 364,268.5C 365.683,273.457 364.183,276.79 359.5,278.5 Z"/></g>
<g><path style="opacity:1" fill="#3098db" d="M 200.5,214.5 C 203.649,214.211 206.649,214.711 209.5,216C 215.874,222.706 221.874,229.706 227.5,237C 215.5,251 203.5,265 191.5,279C 179.736,279.957 168.07,279.623 156.5,278C 153.277,274.888 152.777,271.388 155,267.5C 170.174,249.802 185.341,232.135 200.5,214.5 Z"/></g>
<g><path style="opacity:0.989" fill="#216896" d="M 94.5,246.5 C 95.4964,262.658 95.8298,278.991 95.5,295.5C 84.7551,295.929 74.0885,295.429 63.5,294C 54.2288,290.23 48.8955,283.397 47.5,273.5C 46.6658,263.664 50.3324,255.83 58.5,250C 61.3634,248.601 64.3634,247.601 67.5,247C 76.4938,246.5 85.4938,246.334 94.5,246.5 Z"/></g>
<g><path style="opacity:0.994" fill="#2e98db" d="M 47.5,273.5 C 48.8955,283.397 54.2288,290.23 63.5,294C 74.0885,295.429 84.7551,295.929 95.5,295.5C 205.001,295.833 314.335,295.499 423.5,294.5C 430.175,294.334 436.842,294.5 443.5,295C 454,297.5 460.5,304 463,314.5C 463.667,360.167 463.667,405.833 463,451.5C 461.105,460.396 455.938,466.563 447.5,470C 320.543,471.659 193.543,471.993 66.5,471C 54.6313,468.133 48.1313,460.633 47,448.5C 46.1681,389.999 46.3348,331.665 47.5,273.5 Z"/></g>
<g><path style="opacity:1" fill="#66afde" d="M 213.5,277.5 C 261.997,278.499 310.664,278.832 359.5,278.5C 310.665,279.831 261.665,279.831 212.5,278.5C 212.624,277.893 212.957,277.56 213.5,277.5 Z"/></g>
<g><path style="opacity:1" fill="#d5dde2" d="M 179.5,335.5 C 184.635,334.426 188.468,336.093 191,340.5C 191.667,364.5 191.667,388.5 191,412.5C 189.054,420.111 184.554,425.611 177.5,429C 144.265,436.435 130.432,423.268 136,389.5C 140.3,384.554 144.967,384.221 150,388.5C 151.267,396.062 151.934,403.729 152,411.5C 152.833,412.333 153.667,413.167 154.5,414C 160.167,414.667 165.833,414.667 171.5,414C 172.416,413.626 173.25,413.126 174,412.5C 175.314,388.254 175.981,363.921 176,339.5C 177.376,338.295 178.542,336.962 179.5,335.5 Z"/></g>
<g><path style="opacity:1" fill="#d6dee2" d="M 211.5,335.5 C 230.222,335.052 248.888,335.552 267.5,337C 275.598,340.686 280.764,346.853 283,355.5C 286.248,369.187 283.082,381.02 273.5,391C 270.618,392.608 267.618,393.941 264.5,395C 250.837,395.5 237.171,395.667 223.5,395.5C 223.666,405.506 223.5,415.506 223,425.5C 220.459,430.069 216.625,431.569 211.5,430C 210.333,428.833 209.167,427.667 208,426.5C 207.333,397.5 207.333,368.5 208,339.5C 209.376,338.295 210.542,336.962 211.5,335.5 Z"/></g>
<g><path style="opacity:1" fill="#d6dee2" d="M 326.5,335.5 C 343.399,333.076 357.566,338.076 369,350.5C 372.235,359.594 369.068,363.761 359.5,363C 355.465,358.136 350.465,354.47 344.5,352C 325.473,349.091 312.64,356.591 306,374.5C 303.708,402.54 316.541,415.707 344.5,414C 353.691,411.067 358.691,404.901 359.5,395.5C 350.827,395.666 342.16,395.5 333.5,395C 329.788,392.487 328.622,388.987 330,384.5C 330.5,382.667 331.667,381.5 333.5,381C 345.833,380.333 358.167,380.333 370.5,381C 372.333,381.5 373.5,382.667 374,384.5C 378.13,408.744 368.296,423.911 344.5,430C 324.433,432.87 308.599,426.036 297,409.5C 284.254,385.833 287.421,364.666 306.5,346C 312.596,341.258 319.263,337.758 326.5,335.5 Z"/></g>
<g><path style="opacity:1" fill="#2e98db" d="M 223.5,351.5 C 236.504,351.333 249.504,351.5 262.5,352C 264.378,353.543 265.878,355.376 267,357.5C 267.667,362.833 267.667,368.167 267,373.5C 265.594,376.409 263.428,378.409 260.5,379.5C 248.167,379.5 235.833,379.5 223.5,379.5C 223.5,370.167 223.5,360.833 223.5,351.5 Z"/></g>
<g><path style="opacity:1" fill="#8cbfdf" d="M 223.5,351.5 C 223.5,360.833 223.5,370.167 223.5,379.5C 235.833,379.5 248.167,379.5 260.5,379.5C 248.011,380.495 235.344,380.829 222.5,380.5C 222.173,370.652 222.506,360.986 223.5,351.5 Z"/></g>
</svg>
