<?xml version="1.0" encoding="UTF-8"?>
<!DOCTYPE svg PUBLIC "-//W3C//DTD SVG 1.1//EN" "http://www.w3.org/Graphics/SVG/1.1/DTD/svg11.dtd">
<svg xmlns="http://www.w3.org/2000/svg" version="1.1" width="512px" height="512px" style="shape-rendering:geometricPrecision; text-rendering:geometricPrecision; image-rendering:optimizeQuality; fill-rule:evenodd; clip-rule:evenodd" xmlns:xlink="http://www.w3.org/1999/xlink">
<g><path style="opacity:0.996" fill="#d7dee2" d="M 343.5,39.5 C 343.333,68.5019 343.5,97.5019 344,126.5C 346.929,135.096 352.763,140.596 361.5,143C 382.164,143.5 402.831,143.667 423.5,143.5C 423.5,193.833 423.5,244.167 423.5,294.5C 314.335,295.499 205.001,295.833 95.5,295.5C 95.8298,278.991 95.4964,262.658 94.5,246.5C 94.3333,184.499 94.5,122.499 95,60.5C 97.4987,47.5009 105.332,40.3342 118.5,39C 193.668,38.1678 268.668,38.3344 343.5,39.5 Z"/></g>
<g><path style="opacity:1" fill="#afbdc7" d="M 343.5,39.5 C 347.147,39.6216 349.981,41.2882 352,44.5C 374.615,75.4495 397.615,106.116 421,136.5C 422.411,138.65 423.245,140.984 423.5,143.5C 402.831,143.667 382.164,143.5 361.5,143C 352.763,140.596 346.929,135.096 344,126.5C 343.5,97.5019 343.333,68.5019 343.5,39.5 Z"/></g>
<g><path style="opacity:1" fill="#2f98db" d="M 174.5,119.5 C 199.785,117.308 215.951,128.308 223,152.5C 224.441,177.712 212.941,193.212 188.5,199C 165.538,199.939 150.705,189.439 144,167.5C 141.79,143.559 151.956,127.559 174.5,119.5 Z"/></g>
<g><path style="opacity:1" fill="#2e98db" d="M 359.5,278.5 C 310.664,278.832 261.997,278.499 213.5,277.5C 237.957,248.539 262.623,219.706 287.5,191C 292.946,188.382 297.446,189.549 301,194.5C 321.625,219.461 342.625,244.127 364,268.5C 365.683,273.457 364.183,276.79 359.5,278.5 Z"/></g>
<g><path style="opacity:1" fill="#3098db" d="M 200.5,214.5 C 203.649,214.211 206.649,214.711 209.5,216C 215.874,222.706 221.874,229.706 227.5,237C 215.5,251 203.5,265 191.5,279C 179.736,279.957 168.07,279.623 156.5,278C 153.277,274.888 152.777,271.388 155,267.5C 170.174,249.802 185.341,232.135 200.5,214.5 Z"/></g>
<g><path style="opacity:0.989" fill="#216896" d="M 94.5,246.5 C 95.4964,262.658 95.8298,278.991 95.5,295.5C 84.7551,295.929 74.0885,295.429 63.5,294C 54.2288,290.23 48.8955,283.397 47.5,273.5C 46.6658,263.664 50.3324,255.83 58.5,250C 61.3634,248.601 64.3634,247.601 67.5,247C 76.4938,246.5 85.4938,246.334 94.5,246.5 Z"/></g>
<g><path style="opacity:0.994" fill="#2e98db" d="M 47.5,273.5 C 48.8955,283.397 54.2288,290.23 63.5,294C 74.0885,295.429 84.7551,295.929 95.5,295.5C 205.001,295.833 314.335,295.499 423.5,294.5C 430.175,294.334 436.842,294.5 443.5,295C 454,297.5 460.5,304 463,314.5C 463.667,360.167 463.667,405.833 463,451.5C 461.105,460.396 455.938,466.563 447.5,470C 320.543,471.659 193.543,471.993 66.5,471C 54.6313,468.133 48.1313,460.633 47,448.5C 46.1681,389.999 46.3348,331.665 47.5,273.5 Z"/></g>
<g><path style="opacity:1" fill="#66afde" d="M 213.5,277.5 C 261.997,278.499 310.664,278.832 359.5,278.5C 310.665,279.831 261.665,279.831 212.5,278.5C 212.624,277.893 212.957,277.56 213.5,277.5 Z"/></g>
<g><path style="opacity:1" fill="#d5dee2" d="M 128.5,335.5 C 146.503,335.333 164.503,335.5 182.5,336C 191.427,339.26 197.261,345.427 200,354.5C 200.863,362.564 200.53,370.564 199,378.5C 196.096,387.07 190.263,392.57 181.5,395C 167.837,395.5 154.171,395.667 140.5,395.5C 140.953,406.27 140.453,416.937 139,427.5C 133.471,432.044 128.804,431.377 125,425.5C 124.333,396.833 124.333,368.167 125,339.5C 126.376,338.295 127.542,336.962 128.5,335.5 Z"/></g>
<g><path style="opacity:1" fill="#d5dde2" d="M 276.5,335.5 C 281.635,334.426 285.468,336.093 288,340.5C 288.667,368.5 288.667,396.5 288,424.5C 284.874,430.767 280.208,432.101 274,428.5C 259,408.5 244,388.5 229,368.5C 228.667,387.5 228.333,406.5 228,425.5C 225.459,430.069 221.625,431.569 216.5,430C 215.333,428.833 214.167,427.667 213,426.5C 212.017,397.081 212.35,367.747 214,338.5C 218.665,335.544 222.998,335.878 227,339.5C 241.757,359.347 256.757,379.013 272,398.5C 272.333,378.833 272.667,359.167 273,339.5C 274.376,338.295 275.542,336.962 276.5,335.5 Z"/></g>
<g><path style="opacity:1" fill="#d6dee2" d="M 337.5,335.5 C 354.399,333.076 368.566,338.076 380,350.5C 383.235,359.594 380.068,363.761 370.5,363C 367.72,360.135 364.72,357.468 361.5,355C 340.397,347.134 325.563,353.634 317,374.5C 314.708,402.54 327.541,415.707 355.5,414C 364.691,411.067 369.691,404.901 370.5,395.5C 361.827,395.666 353.16,395.5 344.5,395C 340.788,392.487 339.622,388.987 341,384.5C 341.5,382.667 342.667,381.5 344.5,381C 356.833,380.333 369.167,380.333 381.5,381C 383.333,381.5 384.5,382.667 385,384.5C 389.13,408.744 379.296,423.911 355.5,430C 335.433,432.87 319.599,426.036 308,409.5C 294.971,385.169 298.471,363.669 318.5,345C 324.378,340.727 330.712,337.561 337.5,335.5 Z"/></g>
<g><path style="opacity:1" fill="#3299db" d="M 140.5,351.5 C 153.504,351.333 166.504,351.5 179.5,352C 183.885,355.431 185.552,359.931 184.5,365.5C 185.766,372.133 183.433,376.966 177.5,380C 165.171,380.5 152.838,380.667 140.5,380.5C 140.5,370.833 140.5,361.167 140.5,351.5 Z"/></g>
</svg>
