<svg xmlns="http://www.w3.org/2000/svg" viewBox="0 0 111.64 119.59"><defs><style>.cls-1{fill:#fce8e3;}.cls-2{fill:#4c224b;}.cls-3{fill:#e2988f;}.cls-4{fill:#f4ba5d;}.cls-5{fill:#fff;}.cls-6{fill:#c46966;}.cls-7{fill:#703870;}</style></defs><title>Asset 8</title><g id="Layer_2" data-name="Layer 2"><g id="OBJECTS"><circle class="cls-1" cx="55.82" cy="63.77" r="55.82"/><path class="cls-2" d="M92.34,93.24C108.09,82.56,98.69,65,84.41,41.52a34.45,34.45,0,0,1-4.18-11,25,25,0,0,0-49,.28,41.29,41.29,0,0,1-4,11.52c-13.13,24.84-26,44.86-7.22,51Z"/><rect class="cls-3" x="42.72" y="56.42" width="26.15" height="33.36"/><path class="cls-4" d="M103.79,92.31C91.48,87.13,69,83.24,69,83.24c-8.62,7.26-19.52,7.21-26.3,0,0,0-22.74,3.37-35.57,7.86a55.8,55.8,0,0,0,46.08,28.42c.89,0,1.77.06,2.67.06A55.78,55.78,0,0,0,103.79,92.31Z"/><path class="cls-5" d="M42.72,79.45l-5.15,4.62s3,13,9.15,13.2,9-8.62,9-8.62Q47,86.3,42.72,79.45Z"/><path class="cls-5" d="M68.86,79.45,74,84.07s-3,13-9.15,13.2-9-8.62-9-8.62Q64.62,86.3,68.86,79.45Z"/><circle class="cls-2" cx="55.79" cy="12" r="12"/><path class="cls-3" d="M55.76,16h0C38.9,16,35.07,28.67,35.42,41.38c0,9.16-.65,12.13.2,14.4.47,3.23,7,19.7,20.13,19.7S74.86,59.88,76,55.78c.85-2.27.08-5.24.08-14.4C76.45,28.67,72.61,16,55.76,16Z"/><path class="cls-6" d="M55.76,75.85c-4.91,0-9.39-2.22-13.32-6.6l.56-.5C46.78,73,51.07,75.1,55.76,75.1S64.86,73,68.59,68.77l.56.5C65.28,73.64,60.77,75.85,55.76,75.85Z"/><path class="cls-3" d="M36.16,41.68s-3.39-4.37-6.87-1.81-.09,17.07,6.87,14.52S36.16,41.68,36.16,41.68Z"/><path class="cls-3" d="M75.42,41.68s3.39-4.37,6.87-1.81.09,17.07-6.87,14.52S75.42,41.68,75.42,41.68Z"/><rect class="cls-6" x="34.54" y="48.41" width="0.75" height="6.3" transform="translate(-6.79 5.32) rotate(-7.94)"/><rect class="cls-6" x="73.57" y="51.18" width="6.27" height="0.75" transform="translate(18.26 123.16) rotate(-84.69)"/><path class="cls-6" d="M31,47.4c-.77-2.24-.81-3.85-.12-4.76a1.88,1.88,0,0,1,1.5-.73l0,.75,0-.37,0,.37a1.09,1.09,0,0,0-.88.45c-.36.49-.61,1.58.24,4.05Z"/><path class="cls-6" d="M80.83,47.4l-.71-.24c.85-2.48.59-3.58.23-4.06a1.1,1.1,0,0,0-.87-.44l0-.75a1.88,1.88,0,0,1,1.5.73C81.64,43.55,81.61,45.16,80.83,47.4Z"/><circle class="cls-5" cx="79.16" cy="53.79" r="1.55"/><circle class="cls-5" cx="32.57" cy="53.79" r="1.55"/><path class="cls-2" d="M34.59,35.28a103.14,103.14,0,0,0,42.41,0S77.27,14.64,56.36,14,34.59,35.28,34.59,35.28Z"/><path class="cls-7" d="M67.49,13.87a31.3,31.3,0,0,0-23.47,0l-.27-.7a32,32,0,0,1,24,0Z"/><path class="cls-7" d="M77.63,35a27.7,27.7,0,0,0-6.1-15.23l.58-.48a28.44,28.44,0,0,1,6.26,15.64Z"/><path class="cls-7" d="M34.5,35l-.75-.07A28.44,28.44,0,0,1,40,19.29l.58.48A27.7,27.7,0,0,0,34.5,35Z"/><path class="cls-7" d="M41.29,36.44l-.75-.06a43.75,43.75,0,0,1,2-9.89l.71.23A42.91,42.91,0,0,0,41.29,36.44Z"/><path class="cls-7" d="M68.17,36.77l-.75,0a28.08,28.08,0,0,0-1.05-7.84l.73-.19A28.86,28.86,0,0,1,68.17,36.77Z"/><path class="cls-7" d="M65.63,26.41c-.55-1.72-1-2.86-1-2.87l.69-.29s.49,1.18,1.05,2.93Z"/></g></g></svg>