<svg xmlns="http://www.w3.org/2000/svg" viewBox="0 0 111.64 114.22"><defs><style>.cls-1{fill:#fce8e3;}.cls-2{fill:#4c224b;}.cls-3{fill:#e2988f;}.cls-4{fill:#d85d63;}.cls-5{fill:#fff;}.cls-6{fill:#c46966;}</style></defs><title>Asset 9</title><g id="Layer_2" data-name="Layer 2"><g id="OBJECTS"><circle class="cls-1" cx="55.82" cy="58.4" r="55.82"/><path class="cls-2" d="M88.32,53.92c3.95-23-5.52-52.2-31.54-53.86-8.3-.53-16.41,2.52-20.6,8.41C21.82,14.12,20.61,39.34,22.22,48c4.4,23.8-16.81,19.7-11.43,42l44.33-2.44h1.7l43.54.56C104,71.33,86.54,72.46,88.32,53.92Z"/><rect class="cls-3" x="42.72" y="51.05" width="26.15" height="33.36"/><path class="cls-4" d="M103.79,86.93C91.49,81.76,69,77.87,69,77.87c-8.62,7.26-19.52,7.21-26.31,0,0,0-22.74,3.37-35.57,7.86a55.8,55.8,0,0,0,46.08,28.42c.89,0,1.77.06,2.67.06A55.78,55.78,0,0,0,103.79,86.93Z"/><path class="cls-5" d="M78.94,47c-1,0-1.76,1.41-1.76,3.14S78,53.3,78.94,53.3s1.76-1.41,1.76-3.14S79.92,47,78.94,47Zm0,4.91c-.67,0-1.21-1-1.21-2.16s.54-2.16,1.21-2.16,1.21,1,1.21,2.16S79.61,51.92,78.94,51.92Z"/><path class="cls-5" d="M30.8,50.16c0,1.73.79,3.14,1.76,3.14s1.76-1.41,1.76-3.14S33.54,47,32.57,47,30.8,48.42,30.8,50.16Zm.55-.4c0-1.19.54-2.16,1.21-2.16s1.21,1,1.21,2.16-.54,2.16-1.21,2.16S31.35,51,31.35,49.76Z"/><path class="cls-3" d="M55.77,10.65h0C38.91,10.67,35.08,23.3,35.43,36c0,9.16-.06,15.92.79,18.18S43,70.08,55.77,70.11h0c12.78,0,18.69-13.65,19.54-15.92s.8-9,.8-18.18C76.46,23.3,72.62,10.67,55.77,10.65Z"/><path class="cls-6" d="M55.77,70.48c-5,0-9.53-2-13.44-6.05l.54-.52a17.17,17.17,0,0,0,25.62.18l.53.53A18.35,18.35,0,0,1,55.77,70.48Z"/><path class="cls-3" d="M36.17,35.57s-3.39-5-6.87-2.07S29.21,53,36.17,50.06,36.17,35.57,36.17,35.57Z"/><path class="cls-3" d="M75.43,35.57s3.39-5,6.87-2.07S82.39,53,75.43,50.06,75.43,35.57,75.43,35.57Z"/><rect class="cls-6" x="35.06" y="44.89" width="0.75" height="5.37" transform="matrix(1, -0.07, 0.07, 1, -3.42, 2.75)"/><rect class="cls-6" x="73.18" y="46.91" width="5.94" height="0.75" transform="translate(23.34 119.71) rotate(-85.74)"/><path class="cls-6" d="M31,42.07c-.8-2.66-.81-4.51,0-5.49a1.77,1.77,0,0,1,1.42-.69l0,.75,0-.37,0,.37a1,1,0,0,0-.8.42c-.34.44-.78,1.66.16,4.8Z"/><path class="cls-6" d="M80.85,42.07l-.72-.22c.94-3.14.51-4.35.16-4.8a1,1,0,0,0-.8-.42l0-.75a1.77,1.77,0,0,1,1.42.69C81.65,37.57,81.65,39.41,80.85,42.07Z"/><path class="cls-5" d="M34,51a1.86,1.86,0,0,1-.36,0l-.08,0c-.21.62-.59,1-1,1-.67,0-1.21-1-1.21-2.16s.54-2.15,1.2-2.16a.29.29,0,0,0,0-.58c-1,0-1.76,1.41-1.76,3.14s.79,3.14,1.76,3.14c.81,0,1.49-1,1.7-2.32Z"/><path class="cls-5" d="M79,47a.29.29,0,0,0,0,.58c.67,0,1.2,1,1.2,2.16s-.54,2.16-1.21,2.16c-.37,0-.7-.31-.92-.79l-.19.15-.46.27c.29,1,.88,1.75,1.57,1.75,1,0,1.76-1.41,1.76-3.14S79.92,47,79,47Z"/><path class="cls-2" d="M35.32,34.55A16.89,16.89,0,0,1,41.83,21c6,10.52,22.54,14.09,37.65,8.87,0,0-1.47-25.27-25.07-23.79S35.32,34.55,35.32,34.55Z"/></g></g></svg>