<svg xmlns="http://www.w3.org/2000/svg" viewBox="0 0 111.64 113.71"><defs><style>.cls-1{fill:#fce8e3;}.cls-2{fill:#f4ba5d;}.cls-3{fill:#e2988f;}.cls-4{fill:#fff;}.cls-5{fill:#94a5e4;}.cls-6{fill:#c46966;}</style></defs><title>Asset 10</title><g id="Layer_2" data-name="Layer 2"><g id="OBJECTS"><circle class="cls-1" cx="55.82" cy="57.75" r="55.82"/><path class="cls-2" d="M66.31,74.38a112.26,112.26,0,0,0,11.28-1c6.95-1,13.15-2.72,16.4-9.49,3.31-7.27-.48-18.2-4.2-25A91,91,0,0,1,83.52,26c-2.27-6.3-4-13.08-8.74-18l-.56-.56A26.6,26.6,0,0,0,32,14.8C29,21,28,27.82,25.19,34c-3,6.51-6.49,12.84-7.7,20a14.63,14.63,0,0,0,3.7,12.64c3.9,4.12,9.07,5.84,14.45,6.59A174.39,174.39,0,0,0,66.31,74.38Z"/><rect class="cls-3" x="42.78" y="50.54" width="26.15" height="33.36"/><path class="cls-4" d="M103.85,86.42c-12.31-5.17-34.76-9.07-34.76-9.07-8.62,7.26-19.52,7.21-26.3,0,0,0-22.74,3.37-35.57,7.86a55.8,55.8,0,0,0,46.08,28.42c.89,0,1.77.06,2.67.06A55.78,55.78,0,0,0,103.85,86.42Z"/><path class="cls-5" d="M37.47,78.22c-7.5,1.28-21.29,3.86-30.26,7a55.85,55.85,0,0,0,40,27.8A91.38,91.38,0,0,1,37.47,78.22Z"/><path class="cls-5" d="M74.17,78.22c7.5,1.28,21.29,3.86,30.26,7a55.85,55.85,0,0,1-40,27.8A91.38,91.38,0,0,0,74.17,78.22Z"/><path class="cls-3" d="M55.82,10.14h0C39,10.16,35.13,22.79,35.48,35.5c0,9.16-.65,12.13.2,14.4.47,3.23,7,19.7,20.13,19.7S74.92,54,76.08,49.9c.85-2.27.08-5.24.08-14.4C76.51,22.79,72.68,10.16,55.82,10.14Z"/><path class="cls-6" d="M55.82,70c-4.49,0-9.72-2.59-13.32-6.6l.56-.5c3.46,3.86,8.47,6.35,12.76,6.35s9.47-2.54,12.83-6.33l.56.5C65.72,67.33,60.34,70,55.82,70Z"/><path class="cls-3" d="M35.86,36.71s-3.45-4.06-7-1.69-.1,15.87,7,13.49S35.86,36.71,35.86,36.71Z"/><path class="cls-3" d="M75.85,36.71s3.45-4.06,7-1.69.1,15.87-7,13.49S75.85,36.71,75.85,36.71Z"/><rect class="cls-6" x="34.6" y="42.53" width="0.75" height="6.3" transform="translate(-5.97 5.27) rotate(-7.94)"/><rect class="cls-6" x="73.64" y="45.3" width="6.27" height="0.75" transform="translate(24.18 117.89) rotate(-84.69)"/><path class="cls-6" d="M30.64,42.05c-.76-2-.83-3.5-.18-4.38A2,2,0,0,1,32,36.9l0,.75a1.18,1.18,0,0,0-1,.47c-.33.45-.54,1.46.29,3.67Z"/><path class="cls-6" d="M81.36,42.05l-.7-.26c.83-2.21.61-3.21.29-3.66a1.18,1.18,0,0,0-1-.47l0-.75a2,2,0,0,1,1.59.77C82.18,38.55,82.12,40,81.36,42.05Z"/><path class="cls-2" d="M33.23,34.72c3.14-5.61,18-4.87,22.62-17.68C60.3,31.66,73.43,27.38,79.22,35.2c0,0-2.77-29.46-23.37-29.46S33.23,34.72,33.23,34.72Z"/></g></g></svg>