<svg xmlns="http://www.w3.org/2000/svg" viewBox="0 0 111.64 112.32"><defs><style>.cls-1{fill:#fce8e3;}.cls-2{fill:#e2988f;}.cls-3{fill:#fff;}.cls-4{fill:#f4ba5d;}.cls-5{fill:#eabfb9;}.cls-6{fill:#c46966;}.cls-7{fill:#4c224b;}</style></defs><title>Asset 1</title><g id="Layer_2" data-name="Layer 2"><g id="OBJECTS"><circle class="cls-1" cx="55.82" cy="56.5" r="55.82"/><rect class="cls-2" x="41.19" y="49.15" width="29.53" height="33.36"/><path class="cls-3" d="M103.66,85.5C87.9,78.46,70.72,76,70.72,76c-7.88,8.22-22.57,8.33-29.53,0,0,0-17.18,2.49-32.94,9.52a55.83,55.83,0,0,0,95.41,0Z"/><path class="cls-4" d="M73.93,76.52v32.84A56,56,0,0,0,103.66,85.5,140.47,140.47,0,0,0,73.93,76.52Z"/><path class="cls-4" d="M37.92,76.53a140.41,140.41,0,0,0-29.67,9,56,56,0,0,0,29.67,23.85Z"/><path class="cls-5" d="M55.54,86h-.28c-7.63-.08-14.07-3.44-17.66-9.23l.64-.4c3.45,5.56,9.66,8.79,17,8.87,7.67.07,14.73-3.32,18.35-8.88l.63.41C70.54,82.44,63.39,86,55.54,86Z"/><path class="cls-2" d="M84.88,31.38c-1.63-3.9-5-2-5-2C81.85,11.69,72.84,0,56,0S30.07,11.69,32,29.4c0,0-3.33-1.91-5,2s1.35,13,3.19,15.94A3.72,3.72,0,0,0,34.85,49s.68,6.68,1.53,8.95S46.86,70.63,49.7,72.22c3.71,2.19,9.19,2.19,12.52,0,2.83-1.59,12.46-12,13.31-14.28S77,48.87,77,48.87a3.62,3.62,0,0,0,4.65-1.56C83.54,44.41,86.51,35.28,84.88,31.38Z"/><path class="cls-6" d="M56.11,74.22a13.22,13.22,0,0,1-6.6-1.68c-1.72-1-5.66-4.91-8.59-8.17l.56-.5c3,3.31,6.84,7.13,8.41,8C53.48,74,58.8,74,62,71.91c1.59-.9,5.44-4.72,8.43-8l.56.5c-2.94,3.26-6.88,7.2-8.6,8.17A11.64,11.64,0,0,1,56.11,74.22Z"/><rect class="cls-6" x="34.24" y="44.81" width="0.75" height="4.2" transform="translate(-5.01 4.15) rotate(-6.4)"/><rect class="cls-6" x="75.22" y="46.47" width="4.08" height="0.75" transform="translate(22.62 118.8) rotate(-84.02)"/><path class="cls-6" d="M29.21,40.14c-.16-.57-1.48-5.65.35-7A1.59,1.59,0,0,1,31,32.85a2.8,2.8,0,0,1,1.45,1.59l-.7.27c-.1-.26-.48-1-1-1.14a.85.85,0,0,0-.75.15c-1.06.8-.6,4.25-.06,6.23Z"/><path class="cls-6" d="M82.71,40.14l-.72-.2c.54-2,1-5.43-.08-6.24a.84.84,0,0,0-.73-.14c-.6.2-1,1.13-1,1.14l-.7-.27a2.8,2.8,0,0,1,1.45-1.59,1.58,1.58,0,0,1,1.39.24C84.19,34.49,82.86,39.56,82.71,40.14Z"/><path class="cls-7" d="M34.38,38.71c5,0,1.22-16.14,5.15-20.06,2-2,30.92-1.91,32.84,0,3.93,3.91.14,20.08,5.15,20.06-.35-3.74-.36-7.83,2.39-9.31h0C81.84,11.69,72.84,0,56,0S30.07,11.69,32,29.4h0C34.23,30.85,34.74,34.8,34.38,38.71Z"/><path class="cls-7" d="M56,44.07s-11.87-.26-12.36,7.67H68.32C67.83,43.81,56,44.07,56,44.07Z"/></g></g></svg>