<svg xmlns="http://www.w3.org/2000/svg" viewBox="0 0 111.64 117.14"><defs><style>.cls-1{fill:#fce8e3;}.cls-2{fill:#94a5e4;}.cls-3{fill:#e2988f;}.cls-4{fill:#c46966;}.cls-5{fill:#4c224b;}.cls-6{fill:#6c82bc;}</style></defs><title>Asset 2</title><g id="Layer_2" data-name="Layer 2"><g id="OBJECTS"><circle class="cls-1" cx="55.82" cy="61.32" r="55.82"/><ellipse class="cls-2" cx="55.65" cy="74.19" rx="16.66" ry="2.36"/><rect class="cls-3" x="41.05" y="53.97" width="29.53" height="33.36"/><path class="cls-3" d="M85.64,32.35c-1.68-4-5.11-2-5.11-2C82.51,12.05,73.22,0,55.82,0S29.13,12.05,31.11,30.31c0,0-3.43-2-5.11,2s1.39,13.43,3.29,16.43A21.08,21.08,0,0,0,34.55,54a24.14,24.14,0,0,0,1.1,5.7c.88,2.34,10.81,13.08,13.73,14.72,3.83,2.25,9.47,2.25,12.91,0C65.19,72.81,75.12,62.07,76,59.73a24.14,24.14,0,0,0,1.1-5.7,21.08,21.08,0,0,0,5.26-5.26C84.25,45.78,87.32,36.37,85.64,32.35Z"/><path class="cls-4" d="M28.26,41.37c-.16-.59-1.53-5.82.35-7.24a1.63,1.63,0,0,1,1.45-.26,2.94,2.94,0,0,1,1.49,1.63l-.7.27c-.11-.27-.49-1-1-1.18a.89.89,0,0,0-.78.16c-1.09.83-.62,4.39-.06,6.43Z"/><path class="cls-4" d="M83.38,41.37l-.72-.2c.4-1.47,1.17-5.5-.08-6.45a.88.88,0,0,0-.76-.14c-.52.17-.91.91-1,1.18l-.7-.27a3,3,0,0,1,1.49-1.63,1.62,1.62,0,0,1,1.42.24C84.91,35.56,83.55,40.78,83.38,41.37Z"/><path class="cls-5" d="M55.82,0C38.41,0,29.13,12.05,31.11,30.31h0c2.3,1.5,2.83,5.57,2.47,9.6h0s-.77,12.83,1.76,18.89,6.92,15.51,20.48,15.4h0c13.56.12,18-9.34,20.48-15.4s1.76-18.89,1.76-18.89h0c-.36-3.85-.37-8.08,2.47-9.6h0C82.51,12,73.22,0,55.82,0Zm19,28s-.34,16.75-2.92,20.42S70.16,44,55.82,43.86s-13.54,8.28-16.13,4.61-2.92-20.35-2.92-20.42c.17-3.7.53-7.24,2.12-8.82,2.06-2,5.07-1.72,7.64-1.06,3,.77,6.1,1.8,9.27,1.88,3.35.09,6.54-1.14,9.75-1.92,2.5-.6,5.21-.87,7.19,1.1,1.59,1.59,2,5.12,2.12,8.83Z"/><path class="cls-2" d="M106.33,85.09c-14-3.39-34-4.3-34-4.3C62,89,48.13,89.13,39,80.79c0,0-19.67,1.28-33.55,4.58a55.82,55.82,0,0,0,50.38,31.77h0A55.82,55.82,0,0,0,106.33,85.09Z"/><path class="cls-2" d="M39,74.19v8.35c11.82,8.72,22.94,8.84,33.32,0V74.19C66.42,78,42.75,77.48,39,74.19Z"/><path class="cls-6" d="M55.25,85.91c-1.62,0-3.23-.07-4.79-.21-3.09-.27-10.43-1.26-11.82-4.55l.69-.29c.85,2,5,3.55,11.2,4.09,8.54.75,19.17-.62,21.46-4.15l.63.41C70.57,84.36,62.9,85.91,55.25,85.91Z"/><path class="cls-6" d="M55.31,79a82.2,82.2,0,0,1-8.39-.4c-4.24-.45-6.77-1.19-7.53-2.21l.6-.45c.28.38,1.54,1.33,7,1.91,8.68.92,21.89.18,24.35-2l.49.56C69.79,78.21,62.33,79,55.31,79Z"/></g></g></svg>