<svg xmlns="http://www.w3.org/2000/svg" viewBox="0 0 111.64 111.7"><defs><style>.cls-1{fill:#fce8e3;}.cls-2{fill:#e2988f;}.cls-3{fill:#d85d63;}.cls-4{fill:#b73d49;}.cls-5{fill:#c46966;}.cls-6{fill:#fff;}</style></defs><title>Asset 3</title><g id="Layer_2" data-name="Layer 2"><g id="OBJECTS"><circle class="cls-1" cx="55.82" cy="55.82" r="55.82"/><rect class="cls-2" x="41.05" y="48.53" width="29.53" height="33.36"/><path class="cls-3" d="M103.53,84.87c-15.76-7-32.94-9.52-32.94-9.52-7.88,8.22-22.57,8.33-29.53,0,0,0-17.18,2.49-32.94,9.52a55.83,55.83,0,0,0,95.41,0Z"/><path class="cls-4" d="M55.4,85.34h-.28c-7.63-.08-14.06-3.44-17.66-9.23l.64-.4c3.45,5.56,9.66,8.79,17,8.87h.27c7.6,0,14.51-3.39,18.08-8.88l.63.41C70.4,81.82,63.25,85.34,55.4,85.34Z"/><path class="cls-2" d="M83.7,32.29c-1.57-3.75-4.78-1.91-4.78-1.91.67-14.71-6.83-24.92-23.1-24.92S32.14,17.71,32.72,30.38c0,0-3.21-1.84-4.78,1.91S29.24,44.85,31,47.65a3.59,3.59,0,0,0,4.46,1.62s.66,6.44,1.47,8.62,10.1,12.23,12.83,13.76c3.58,2.11,8.85,2.11,12.07,0,2.73-1.54,12-11.58,12.83-13.76s1.46-8.74,1.46-8.74a3.49,3.49,0,0,0,4.48-1.5C82.4,44.85,85.27,36,83.7,32.29Z"/><path class="cls-5" d="M56,72.15c-6.63,0-11.54-4.59-14.65-8l.56-.5c3,3.35,7.76,7.8,14.09,7.8,6,0,10.34-3.94,13.82-7.8l.56.5C66.74,68.08,62.23,72.15,56,72.15Z"/><rect class="cls-5" x="34.88" y="45.23" width="0.75" height="4.05" transform="translate(-5.04 4.22) rotate(-6.39)"/><rect class="cls-5" x="74.39" y="46.82" width="3.93" height="0.75" transform="translate(21.46 118.22) rotate(-84.02)"/><path class="cls-5" d="M30,40.74c-.15-.55-1.43-5.45.34-6.8a1.56,1.56,0,0,1,1.37-.25,2.72,2.72,0,0,1,1.4,1.54l-.7.27c-.1-.25-.46-.94-.94-1.09a.81.81,0,0,0-.71.15c-1,.77-.57,4.08,0,6Z"/><path class="cls-5" d="M81.61,40.74l-.72-.2c.52-1.9,1-5.22-.07-6a.8.8,0,0,0-.69-.13c-.48.16-.84.84-.94,1.09l-.7-.27a2.72,2.72,0,0,1,1.4-1.54,1.54,1.54,0,0,1,1.35.23C83,35.28,81.77,40.18,81.61,40.74Z"/><path class="cls-6" d="M32.72,30.38c1.85,2,2.65,4.29,3.1,7.42-.34-10.43,4.51-14.17,4.44-27-6.39.66-9.06,10.13-8.24,19.31Z"/><path class="cls-6" d="M78.89,30.38c-1.85,2-2.65,4.29-3.1,7.42.34-10.43-4.51-14.17-4.44-27,6.39.66,9.06,10.13,8.24,19.31Z"/></g></g></svg>