<svg xmlns="http://www.w3.org/2000/svg" xmlns:xlink="http://www.w3.org/1999/xlink" viewBox="0 0 117.6 119.05"><defs><style>.cls-1{fill:#72bcc6;}.cls-2{clip-path:url(#clip-path);}.cls-3{fill:#003662;}.cls-4{fill:#dda778;}.cls-5{fill:#281511;}.cls-6{fill:#f9bb8d;}.cls-7{fill:#ac0f09;}</style><clipPath id="clip-path"><circle class="cls-1" cx="58.8" cy="58.8" r="58.8"/></clipPath></defs><title>Asset 3</title><g id="Layer_2" data-name="Layer 2"><g id="Capa_1" data-name="Capa 1"><circle class="cls-1" cx="58.8" cy="58.8" r="58.8"/><g class="cls-2"><path class="cls-3" d="M90.07,93.18c-3.7-4.61-32.94-14.72-32.94-14.72S28.5,89.64,24.19,93.18s-5.92,25.88-5.92,25.88H95.15S93.77,97.78,90.07,93.18Z"/><path class="cls-4" d="M66.2,83.85a7,7,0,0,1-4.08,4.49c-1.25.56-2.87,7.69-5,7.69S53.23,88.86,52,88.24a6.92,6.92,0,0,1-3.87-4.39,12.06,12.06,0,0,0,0-9.54c-2.21-5.15,20.82-6.2,18.12,0S66.2,83.85,66.2,83.85Z"/><path class="cls-5" d="M77.81,63.34c1.69-7.57,3.72-18.71,3.72-18.71,7-15.6-.26-39.12-13.79-31.89C51-2.55,24.52,18.83,33.48,44.42a179.89,179.89,0,0,0,2.82,19.17c2,8.39,16.41,14.62,20.83,14.87S76,71.36,77.81,63.34Z"/><path class="cls-6" d="M82.74,49.09c0,4.09-2.9,9.71-4.85,9.71s-3.54-3.32-3.54-7.4A8.77,8.77,0,0,1,77.88,44C79.78,42.52,82.74,44,82.74,49.09Z"/><path class="cls-6" d="M32.11,49.09c0,4.09,2.9,9.71,4.85,9.71s3.54-3.32,3.54-7.4A8.78,8.78,0,0,0,37,44C35.07,42.52,32.11,44,32.11,49.09Z"/><path class="cls-6" d="M57.51,16.69c-13.73,0-19.8,9.62-19.8,24v18c0,12.5,14.44,23.19,19,23.19s20.6-12.5,20.6-24.34V40.66C77.31,26.31,71.24,16.69,57.51,16.69Z"/><path class="cls-5" d="M77.31,50.9l1.24-10.47c0-14.35-7.31-25-21-25S37,26.08,37,40.43l.71,12.77a13.42,13.42,0,0,0,1.48-6.79c-.33-9.21,6.12-10,13.63-11.47C64.66,32.69,68,25.59,68,25.59s3.88,1.31,6.36,7.1c1.6,3.74,2,9.47,1.85,11.82A25.24,25.24,0,0,0,77.31,50.9Z"/><path class="cls-7" d="M45.85,40.43c-5.31,0-8.64,2-8.64,4.07,0,3.33,1.22,8.74,6.49,9.38,5.1.62,11.77-1.23,11.77-9.74C55.47,42.16,51.16,40.43,45.85,40.43ZM44.08,52.92c-4.52-.55-5.56-5.17-5.56-8,0-1.79,2.84-3.49,7.39-3.49s8.24,1.48,8.24,3.17C54.16,51.86,48.46,53.45,44.08,52.92Z"/><path class="cls-7" d="M58.8,46.29a1.83,1.83,0,0,0-2-1.3c-1.2,0-1.51,1.42-1.51,1.42l-.64-3.75a3.23,3.23,0,0,0,1.46.75,5.8,5.8,0,0,0,1.61,0,2.37,2.37,0,0,0,1.08-.75Z"/><path class="cls-7" d="M38,48.33S36,48.19,36,47.21v-3C36,42.72,38,43.21,38,43.21Z"/><path class="cls-7" d="M57.94,44.14c0,8.51,6.66,10.36,11.77,9.74,5.28-.64,6.49-6,6.49-9.38,0-2.1-3.32-4.07-8.64-4.07S57.94,42.16,57.94,44.14Zm1.31.44c0-1.69,3.69-3.17,8.24-3.17s7.39,1.69,7.39,3.49c0,2.85-1,7.48-5.55,8S59.26,51.86,59.26,44.58Z"/><path class="cls-7" d="M75.46,48.33s1.91-.14,1.91-1.12v-3c0-1.54-1.91-1.05-1.91-1.05Z"/></g></g></g></svg>