<svg xmlns="http://www.w3.org/2000/svg" viewBox="0 0 111.64 117.97"><defs><style>.cls-1{fill:#fce8e3;}.cls-2{fill:#e2988f;}.cls-3{fill:#c46966;}.cls-4{fill:#f4ba5d;}.cls-5{fill:#fff;}.cls-6{fill:#94a5e4;}.cls-7{fill:#6c82bc;}</style></defs><title>Asset 6</title><g id="Layer_2" data-name="Layer 2"><g id="OBJECTS"><circle class="cls-1" cx="55.82" cy="62.15" r="55.82"/><rect class="cls-2" x="39.27" y="54.8" width="33.09" height="33.36"/><path class="cls-2" d="M84.74,31.38c-1.63-3.9-5-2-5-2C81.71,11.69,72.7,0,55.82,0s-25.89,11.69-24,29.4c0,0-3.33-1.91-5,2s1.35,13,3.19,15.94a5,5,0,0,0,5.1,2.22s.21,6.14,1.06,8.41S43,73.86,55.82,73.86,74.54,60.21,75.39,57.94s1.06-8.66,1.06-8.66a4.67,4.67,0,0,0,5.1-2C83.4,44.41,86.37,35.28,84.74,31.38Z"/><path class="cls-3" d="M55.82,74.23c-8,0-15.49-8.64-16.9-10.37l.58-.47c1.37,1.69,8.61,10.09,16.32,10.09s14.91-8.28,16.26-9.94l.58.47C71.27,65.72,63.93,74.23,55.82,74.23Z"/><rect class="cls-3" x="34.65" y="44.81" width="0.75" height="4.73" transform="translate(-3.06 2.44) rotate(-3.82)"/><rect class="cls-3" x="74.4" y="46.68" width="4.48" height="0.75" transform="translate(23.65 119.71) rotate(-85.44)"/><path class="cls-3" d="M29.11,40.17c-1.08-4.16-.91-6.71.53-8l.51.55c-1.2,1.11-1.31,3.49-.31,7.3Z"/><path class="cls-3" d="M82.7,40.17,82,40c1-3.81.89-6.2-.31-7.3l.51-.55C83.61,33.46,83.78,36,82.7,40.17Z"/><path class="cls-4" d="M83,12.92C76.77,7.87,70.53,2.84,65.7,1.61A28.9,28.9,0,0,0,55.82,0C44.34,0,34.74,3.53,33.27,14.42,28,16.63,29,25.16,30.11,28.93a3.79,3.79,0,0,1,1.74.47h0c2.23,1.45,2.74,5.4,2.39,9.31,5,0,1.22-16.14,5.15-20.06C54.27,28,74.13,23.09,74.13,23.09c.56,6.1-.26,15.64,3.26,15.63C77,35,77,30.88,79.78,29.4h0a37.84,37.84,0,0,0-.14-9.86A9.78,9.78,0,0,0,83,12.92Z"/><path class="cls-5" d="M43,49.37A10.37,10.37,0,1,1,53.39,39,10.38,10.38,0,0,1,43,49.37Zm0-20A9.62,9.62,0,1,0,52.64,39,9.63,9.63,0,0,0,43,29.37Z"/><path class="cls-5" d="M68.63,49.37A10.37,10.37,0,1,1,79,39,10.38,10.38,0,0,1,68.63,49.37Zm0-20A9.62,9.62,0,1,0,78.25,39,9.63,9.63,0,0,0,68.63,29.37Z"/><path class="cls-5" d="M58.69,36.75a4.52,4.52,0,0,0-3.43-1.36A3.12,3.12,0,0,0,53,36.7l-.6-.45a3.91,3.91,0,0,1,2.8-1.61,5.25,5.25,0,0,1,4,1.55Z"/><path class="cls-6" d="M103.53,91.14A141.73,141.73,0,0,0,72.4,81.62c-7.88,8.22-26.16,8.33-33.13,0A141.71,141.71,0,0,0,8.11,91.14a55.83,55.83,0,0,0,95.41,0Z"/><path class="cls-7" d="M55.29,92.67A29,29,0,0,1,33.17,83l.57-.49c9.12,10.58,27.86,14.1,46,.36l.45.6C71.7,90,63.06,92.67,55.29,92.67Z"/></g></g></svg>